# xmcd
#
# Track frame offsets: 
#        150
#        13994
#        24317
#        36153
#        46094
#        58342
#        70392
#        81295
#        93611
#        109079
#        121532
#        131889
#        140989
#        152065
#        168046
#        177574
#        189281
#        199662
#        209838
#        224325
#        237546
#        248597
#        260792
#        271490
#        286686
#        296704
#        309065
#        319604
#        329564
#        339485
#
# Disc length: 4669 seconds
#
# Revision: 0
# Processed by: cddbd v1.5.2PL0 Copyright (c) Steve Scherf et al.
# Submitted via: ExactAudioCopy v0.99pb5
#
DISCID=cf123b1e
DTITLE=Various Artist - Plantation Gold [CD2] Flac
DYEAR=2009
DGENRE=Country
TTITLE0=Ben Story - Let That Big Plane Carry You
TTITLE1=Robin Cody - Big Chief Tell 'Um Lies
TTITLE2="C" Company featuring Terry Nelson - Wake Up America
TTITLE3=Harlow Wilcox and The Oakies - Groovy Grubworm
TTITLE4=Linda Martell - Color Him Father
TTITLE5=David Wilkins - Put A Little Lovin' On Me
TTITLE6=Teresa Brewer - A Woman's World
TTITLE7=Paul Martin - The Cheating Line
TTITLE8=David Wilkins - She Hates To Be Alone
TTITLE9=Tom Sawyer - Fallen King
TTITLE10=Lawton Williams - Ain't That Bad About Mrs. Jones
TTITLE11=Melvin Nash - Wheels Of Freedom
TTITLE12=Trooper Jim Foster - Four On The Floor (And A Fifth Under The
TTITLE12=Seat)
TTITLE13=Rod Hart - C.B. Savage
TTITLE14=Johnny Credit - Box 1000 Seagoville
TTITLE15=Paul Martin - Child Of Poverty
TTITLE16=James O'Gwynn - It's Not The Best Way To Live
TTITLE17=Clark Bentley - Ole Town Drunk
TTITLE18=George Kent - Loving Hands At Home
TTITLE19=Neil Ray - The Medic
TTITLE20=Tom Sawyer - The Best Fruit Of The Family Tree
TTITLE21=Webb Pierce - Appleton
TTITLE22=Max Powell - No Brass Band
TTITLE23=Margaret Lewis - Mrs. Cooper's Tea Party
TTITLE24=David Wilkins - Irving
TTITLE25=Lawton Williams - Ballad Of Morgan
TTITLE26=Little Jimmy Dempsey - I Walk The Line
TTITLE27=The Harper Valley P.T.A. - Unfinished Dream
TTITLE28=Tom Sawyer - Flag Draped Coffin
TTITLE29=Jeannie C. Riley - Tree Of Joy
EXTD=
EXTT0=
EXTT1=
EXTT2=
EXTT3=
EXTT4=
EXTT5=
EXTT6=
EXTT7=
EXTT8=
EXTT9=
EXTT10=
EXTT11=
EXTT12=
EXTT13=
EXTT14=
EXTT15=
EXTT16=
EXTT17=
EXTT18=
EXTT19=
EXTT20=
EXTT21=
EXTT22=
EXTT23=
EXTT24=
EXTT25=
EXTT26=
EXTT27=
EXTT28=
EXTT29=
PLAYORDER=
